<svg xmlns="http://www.w3.org/2000/svg" viewBox="0 0 340 104" role="img" aria-label="Dedienne Aerospace">
  <!-- Marque : avion stylisé traversant une orbite (couleur orange Dedienne) -->
  <g transform="translate(50 52)">
    <g transform="rotate(-18)">
      <ellipse cx="0" cy="0" rx="46" ry="17" fill="none" stroke="#EE7A00" stroke-width="3.5"/>
      <g fill="#EE7A00">
        <path d="M26,0 C22,3 12,4 2,4 L-14,4 C-22,4 -26,2 -28,0 C-26,-2 -22,-4 -14,-4 L2,-4 C12,-4 22,-3 26,0 Z"/>
        <path d="M4,-3 L-16,-32 L-22,-32 L-6,-3 Z"/>
        <path d="M4,3 L-16,32 L-22,32 L-6,3 Z"/>
        <path d="M-16,-3 L-26,-15 L-30,-15 L-20,-3 Z"/>
        <path d="M-16,3 L-26,15 L-30,15 L-20,3 Z"/>
      </g>
    </g>
  </g>
  <!-- Texte : blanc pour fond sombre (barre latérale) -->
  <text x="116" y="48" font-family="'Segoe UI',Arial,sans-serif" font-weight="700" font-size="31" letter-spacing="0.5" fill="#ffffff">DEDIENNE</text>
  <text x="118" y="75" font-family="'Segoe UI',Arial,sans-serif" font-weight="400" font-size="17.5" letter-spacing="7" fill="#EE7A00">AEROSPACE</text>
</svg>
