<svg xmlns="http://www.w3.org/2000/svg" viewBox="0 0 100 100" role="img" aria-label="Dedienne Aerospace">
  <rect width="100" height="100" rx="18" fill="#0F3557"/>
  <g transform="translate(50 50) scale(1.25)">
    <g transform="rotate(-18)">
      <ellipse cx="0" cy="0" rx="30" ry="11" fill="none" stroke="#EE7A00" stroke-width="3"/>
      <g fill="#EE7A00">
        <path d="M22,0 C18,2.5 10,3.5 1,3.5 L-12,3.5 C-19,3.5 -22,1.7 -24,0 C-22,-1.7 -19,-3.5 -12,-3.5 L1,-3.5 C10,-3.5 18,-2.5 22,0 Z"/>
        <path d="M3,-2.5 L-14,-27 L-19,-27 L-5,-2.5 Z"/>
        <path d="M3,2.5 L-14,27 L-19,27 L-5,2.5 Z"/>
        <path d="M-14,-2.5 L-22,-13 L-25,-13 L-17,-2.5 Z"/>
        <path d="M-14,2.5 L-22,13 L-25,13 L-17,2.5 Z"/>
      </g>
    </g>
  </g>
</svg>
